# xmcd
#
# Track frame offsets:
#	150
#	17147
#	31020
#	50562
#	62264
#	81539
#	100149
#	117258
#	137675
#
# Disc length: 1965 seconds
#
# Revision: 0
# Processed by: cddbd v1.5.2PL0 Copyright (c) Steve Scherf et al.
# Submitted via: dBpowerAMP V4.0
#
DISCID=6e07ab09
DTITLE=The Novel Ideas - Home
DYEAR=2012
DGENRE=Alt. Country
TTITLE0=The Blue Between Us
TTITLE1=Back and Forth
TTITLE2=Saint Marie
TTITLE3=Lonesome George
TTITLE4=Running Speed
TTITLE5=Not Enough
TTITLE6=Promise
TTITLE7=Heart of Stone
TTITLE8=News
EXTD=
EXTT0=
EXTT1=
EXTT2=
EXTT3=
EXTT4=
EXTT5=
EXTT6=
EXTT7=
EXTT8=
PLAYORDER=
